<svg width="50" height="48" viewBox="0 0 50 48" fill="none" xmlns="http://www.w3.org/2000/svg">
<g clip-path="url(#clip0_3691_238)">
<path d="M11.0942 47.9999C13.843 47.9999 16.4474 46.9859 18.4716 45.1157L46.4712 19.2392C50.9072 15.1396 51.2011 8.17361 47.1248 3.71222L46.9703 3.54151C45.0018 1.38853 42.3087 0.134962 39.3851 0.0101149C36.4615 -0.11728 33.6722 0.906978 31.5315 2.88415L3.53187 28.7581C-0.904186 32.8577 -1.19807 39.8237 2.87824 44.2851L3.03278 44.4558C4.99873 46.6088 7.69431 47.8623 10.6179 47.9872C10.7775 47.9948 10.9371 47.9974 11.0942 47.9974V47.9999ZM38.9088 1.52867C39.0457 1.52867 39.1825 1.53121 39.3193 1.53631C41.8375 1.64332 44.1556 2.72363 45.8479 4.57596L46.0025 4.74667C49.5113 8.58891 49.2605 14.5841 45.4401 18.113L17.4405 43.987C15.5986 45.689 13.1969 46.568 10.6787 46.461C8.16047 46.354 5.84237 45.2737 4.15003 43.4213L3.99549 43.2506C0.486671 39.4084 0.737484 33.4132 4.55791 29.8843L32.5575 4.01033C34.298 2.40005 36.5401 1.52867 38.9063 1.52867H38.9088Z" fill="#B3E4FE"/>
<path d="M17.9644 23.8049C18.1721 23.5756 18.4685 23.4354 18.7852 23.4201C19.0943 23.4074 19.3957 23.5221 19.6162 23.7259C19.8442 23.9348 19.981 24.2278 19.9962 24.531C20.0139 24.847 19.905 25.1578 19.7074 25.3718C19.5022 25.6063 19.2057 25.7515 18.8865 25.7693C18.8688 25.7693 18.8485 25.7693 18.8308 25.7693C18.542 25.7693 18.2557 25.6598 18.0429 25.4636C17.8123 25.2521 17.673 24.9514 17.6603 24.638C17.6477 24.3298 17.7591 24.024 17.9644 23.7998V23.8049Z" fill="#B3E4FE"/>
<path d="M25.4885 17.2032L25.5063 17.2185C25.98 17.6542 26.013 18.4033 25.5696 18.8951C25.3619 19.1167 25.0781 19.2467 24.7741 19.262C24.7539 19.262 24.7361 19.262 24.7158 19.262C24.4245 19.262 24.1458 19.1549 23.9279 18.9562C23.4542 18.5205 23.4213 17.774 23.8545 17.2924C24.2801 16.8236 25.0148 16.7828 25.4911 17.2032H25.4885Z" fill="#B3E4FE"/>
<path d="M24.9901 23.1527C25.3017 23.14 25.5981 23.2495 25.8211 23.4559C26.0516 23.6623 26.1884 23.9502 26.2061 24.2636C26.2239 24.5719 26.1149 24.8827 25.9097 25.112C25.702 25.3464 25.4157 25.4866 25.094 25.5044C25.0762 25.5044 25.0585 25.5044 25.0408 25.5044C24.7519 25.5044 24.4682 25.3949 24.2554 25.1987C24.0223 24.9897 23.883 24.6865 23.8703 24.3706C23.8576 24.0547 23.9666 23.754 24.1768 23.5298C24.3846 23.303 24.6785 23.1629 24.9926 23.1501L24.9901 23.1527Z" fill="#B3E4FE"/>
<path d="M25.3343 29.2904H25.3545C25.6636 29.2803 25.9676 29.3898 26.1754 29.586C26.411 29.7949 26.5503 30.0854 26.5655 30.4013C26.5832 30.7096 26.4743 31.0205 26.2691 31.2498C26.0639 31.4842 25.7776 31.6218 25.4533 31.6396C25.4356 31.6396 25.4179 31.6396 25.4001 31.6396C25.1113 31.6396 24.825 31.5301 24.6097 31.3339C24.3791 31.1224 24.2398 30.8243 24.2297 30.5109C24.217 30.195 24.3285 29.8943 24.5362 29.6701C24.7414 29.4459 25.0328 29.3057 25.3343 29.2904Z" fill="#B3E4FE"/>
<path d="M31.9695 23.1349L32.0049 23.1654C32.4787 23.6011 32.5116 24.3502 32.0708 24.8369C31.8631 25.0611 31.5793 25.1936 31.2728 25.2088C31.2525 25.2088 31.2348 25.2088 31.2145 25.2088C30.9232 25.2088 30.6445 25.1018 30.4266 24.9031C29.9528 24.4674 29.9199 23.7209 30.3506 23.2419C30.7712 22.7756 31.4906 22.7323 31.9695 23.1349Z" fill="#B3E4FE"/>
<path d="M1.88005 5.00659H1.89272H20.7669L46.3876 28.6817C50.8717 32.8246 51.1656 39.8645 47.0463 44.3717C45.0575 46.5477 42.3366 47.814 39.3826 47.9414C39.2205 47.949 39.0608 47.9515 38.9012 47.9515C36.1221 47.9515 33.4923 46.9247 31.4479 45.0367L3.61546 19.3182C-0.293636 15.7052 -1.03847 9.5546 1.88005 5.00659ZM3.80294 6.53279C4.85178 8.39785 7.87164 9.78646 11.3247 9.78646C14.7778 9.78646 17.7977 8.39785 18.8465 6.53279H3.8004H3.80294ZM4.64151 18.192L32.4739 43.9106C34.3385 45.633 36.7706 46.5247 39.3167 46.4152C41.8654 46.3056 44.2139 45.2151 45.9265 43.3398C49.4784 39.4517 49.2225 33.3826 45.3564 29.8105L20.4299 6.77229C19.3507 9.41957 15.738 11.3178 11.3247 11.3178C7.15975 11.3178 3.7092 9.62849 2.42475 7.21053C0.810947 10.933 1.64952 15.4275 4.64151 18.192Z" fill="#B3E4FE"/>
</g>
<defs>
<clipPath id="clip0_3691_238">
<rect width="50" height="48" fill="white" transform="matrix(-1 0 0 1 50 0)"/>
</clipPath>
</defs>
</svg>
