<svg width="200" height="200" viewBox="0 0 200 200" fill="none" xmlns="http://www.w3.org/2000/svg">
<path d="M100 200C44.7715 200 8.47354e-06 155.228 1.08877e-05 100C1.33018e-05 44.7715 44.7715 -6.78525e-06 100 -4.37114e-06C155.228 -1.95703e-06 200 44.7715 200 100C200 155.228 155.228 200 100 200ZM100 22.9791C57.4626 22.9791 22.9792 57.4625 22.9792 100C22.9792 142.537 57.4625 177.021 100 177.021C142.537 177.021 177.021 142.537 177.021 100C177.021 57.4626 142.537 22.9791 100 22.9791Z" fill="white"/>
</svg>
