<svg width="48" height="28" viewBox="0 0 48 28" fill="none" xmlns="http://www.w3.org/2000/svg">
<path d="M4 8.00977C4.99456 8.00977 5.94839 7.61468 6.65165 6.91142C7.35491 6.20815 7.75 5.25433 7.75 4.25977C7.75 3.2652 7.35491 2.31138 6.65165 1.60812C5.94839 0.904854 4.99456 0.509766 4 0.509766C3.00544 0.509766 2.05161 0.904854 1.34835 1.60812C0.645088 2.31138 0.25 3.2652 0.25 4.25977C0.25 5.25433 0.645088 6.20815 1.34835 6.91142C2.05161 7.61468 3.00544 8.00977 4 8.00977ZM14 8.00977C14.9946 8.00977 15.9484 7.61468 16.6516 6.91142C17.3549 6.20815 17.75 5.25433 17.75 4.25977C17.75 3.2652 17.3549 2.31138 16.6516 1.60812C15.9484 0.904854 14.9946 0.509766 14 0.509766C13.0054 0.509766 12.0516 0.904854 11.3483 1.60812C10.6451 2.31138 10.25 3.2652 10.25 4.25977C10.25 5.25433 10.6451 6.20815 11.3483 6.91142C12.0516 7.61468 13.0054 8.00977 14 8.00977ZM24 8.00977C24.9946 8.00977 25.9484 7.61468 26.6516 6.91142C27.3549 6.20815 27.75 5.25433 27.75 4.25977C27.75 3.2652 27.3549 2.31138 26.6516 1.60812C25.9484 0.904854 24.9946 0.509766 24 0.509766C23.0054 0.509766 22.0516 0.904854 21.3483 1.60812C20.6451 2.31138 20.25 3.2652 20.25 4.25977C20.25 5.25433 20.6451 6.20815 21.3483 6.91142C22.0516 7.61468 23.0054 8.00977 24 8.00977ZM34 8.00977C34.9946 8.00977 35.9484 7.61468 36.6516 6.91142C37.3549 6.20815 37.75 5.25433 37.75 4.25977C37.75 3.2652 37.3549 2.31138 36.6516 1.60812C35.9484 0.904854 34.9946 0.509766 34 0.509766C33.0054 0.509766 32.0516 0.904854 31.3483 1.60812C30.6451 2.31138 30.25 3.2652 30.25 4.25977C30.25 5.25433 30.6451 6.20815 31.3483 6.91142C32.0516 7.61468 33.0054 8.00977 34 8.00977ZM44 8.00977C44.9946 8.00977 45.9484 7.61468 46.6517 6.91142C47.3549 6.20815 47.75 5.25433 47.75 4.25977C47.75 3.2652 47.3549 2.31138 46.6517 1.60812C45.9484 0.904854 44.9946 0.509766 44 0.509766C43.0054 0.509766 42.0516 0.904854 41.3483 1.60812C40.6451 2.31138 40.25 3.2652 40.25 4.25977C40.25 5.25433 40.6451 6.20815 41.3483 6.91142C42.0516 7.61468 43.0054 8.00977 44 8.00977ZM4 17.9998C4.99456 17.9998 5.94839 17.6047 6.65165 16.9014C7.35491 16.1982 7.75 15.2443 7.75 14.2498C7.75 13.2552 7.35491 12.3014 6.65165 11.5981C5.94839 10.8949 4.99456 10.4998 4 10.4998C3.00544 10.4998 2.05161 10.8949 1.34835 11.5981C0.645088 12.3014 0.25 13.2552 0.25 14.2498C0.25 15.2443 0.645088 16.1982 1.34835 16.9014C2.05161 17.6047 3.00544 17.9998 4 17.9998ZM14 17.9998C14.9946 17.9998 15.9484 17.6047 16.6516 16.9014C17.3549 16.1982 17.75 15.2443 17.75 14.2498C17.75 13.2552 17.3549 12.3014 16.6516 11.5981C15.9484 10.8949 14.9946 10.4998 14 10.4998C13.0054 10.4998 12.0516 10.8949 11.3483 11.5981C10.6451 12.3014 10.25 13.2552 10.25 14.2498C10.25 15.2443 10.6451 16.1982 11.3483 16.9014C12.0516 17.6047 13.0054 17.9998 14 17.9998ZM24 17.9998C24.9946 17.9998 25.9484 17.6047 26.6516 16.9014C27.3549 16.1982 27.75 15.2443 27.75 14.2498C27.75 13.2552 27.3549 12.3014 26.6516 11.5981C25.9484 10.8949 24.9946 10.4998 24 10.4998C23.0054 10.4998 22.0516 10.8949 21.3483 11.5981C20.6451 12.3014 20.25 13.2552 20.25 14.2498C20.25 15.2443 20.6451 16.1982 21.3483 16.9014C22.0516 17.6047 23.0054 17.9998 24 17.9998ZM34 17.9998C34.9946 17.9998 35.9484 17.6047 36.6516 16.9014C37.3549 16.1982 37.75 15.2443 37.75 14.2498C37.75 13.2552 37.3549 12.3014 36.6516 11.5981C35.9484 10.8949 34.9946 10.4998 34 10.4998C33.0054 10.4998 32.0516 10.8949 31.3483 11.5981C30.6451 12.3014 30.25 13.2552 30.25 14.2498C30.25 15.2443 30.6451 16.1982 31.3483 16.9014C32.0516 17.6047 33.0054 17.9998 34 17.9998ZM44 17.9998C44.9946 17.9998 45.9484 17.6047 46.6517 16.9014C47.3549 16.1982 47.75 15.2443 47.75 14.2498C47.75 13.2552 47.3549 12.3014 46.6517 11.5981C45.9484 10.8949 44.9946 10.4998 44 10.4998C43.0054 10.4998 42.0516 10.8949 41.3483 11.5981C40.6451 12.3014 40.25 13.2552 40.25 14.2498C40.25 15.2443 40.6451 16.1982 41.3483 16.9014C42.0516 17.6047 43.0054 17.9998 44 17.9998ZM4 28.0098C4.99456 28.0098 5.94839 27.6147 6.65165 26.9114C7.35491 26.2082 7.75 25.2543 7.75 24.2598C7.75 23.2652 7.35491 22.3114 6.65165 21.6081C5.94839 20.9049 4.99456 20.5098 4 20.5098C3.00544 20.5098 2.05161 20.9049 1.34835 21.6081C0.645088 22.3114 0.25 23.2652 0.25 24.2598C0.25 25.2543 0.645088 26.2082 1.34835 26.9114C2.05161 27.6147 3.00544 28.0098 4 28.0098ZM14 28.0098C14.9946 28.0098 15.9484 27.6147 16.6516 26.9114C17.3549 26.2082 17.75 25.2543 17.75 24.2598C17.75 23.2652 17.3549 22.3114 16.6516 21.6081C15.9484 20.9049 14.9946 20.5098 14 20.5098C13.0054 20.5098 12.0516 20.9049 11.3483 21.6081C10.6451 22.3114 10.25 23.2652 10.25 24.2598C10.25 25.2543 10.6451 26.2082 11.3483 26.9114C12.0516 27.6147 13.0054 28.0098 14 28.0098ZM24 28.0098C24.9946 28.0098 25.9484 27.6147 26.6516 26.9114C27.3549 26.2082 27.75 25.2543 27.75 24.2598C27.75 23.2652 27.3549 22.3114 26.6516 21.6081C25.9484 20.9049 24.9946 20.5098 24 20.5098C23.0054 20.5098 22.0516 20.9049 21.3483 21.6081C20.6451 22.3114 20.25 23.2652 20.25 24.2598C20.25 25.2543 20.6451 26.2082 21.3483 26.9114C22.0516 27.6147 23.0054 28.0098 24 28.0098ZM34 28.0098C34.9946 28.0098 35.9484 27.6147 36.6516 26.9114C37.3549 26.2082 37.75 25.2543 37.75 24.2598C37.75 23.2652 37.3549 22.3114 36.6516 21.6081C35.9484 20.9049 34.9946 20.5098 34 20.5098C33.0054 20.5098 32.0516 20.9049 31.3483 21.6081C30.6451 22.3114 30.25 23.2652 30.25 24.2598C30.25 25.2543 30.6451 26.2082 31.3483 26.9114C32.0516 27.6147 33.0054 28.0098 34 28.0098ZM44 28.0098C44.9946 28.0098 45.9484 27.6147 46.6517 26.9114C47.3549 26.2082 47.75 25.2543 47.75 24.2598C47.75 23.2652 47.3549 22.3114 46.6517 21.6081C45.9484 20.9049 44.9946 20.5098 44 20.5098C43.0054 20.5098 42.0516 20.9049 41.3483 21.6081C40.6451 22.3114 40.25 23.2652 40.25 24.2598C40.25 25.2543 40.6451 26.2082 41.3483 26.9114C42.0516 27.6147 43.0054 28.0098 44 28.0098Z" fill="#000165"/>
</svg>
