<svg width="29" height="29" viewBox="0 0 29 29" fill="none" xmlns="http://www.w3.org/2000/svg">
<path d="M15.8467 28.3335V23.3335H14.5967C12.2768 23.3308 10.0528 22.4081 8.41242 20.7678C6.77205 19.1274 5.84933 16.9033 5.84668 14.5835V13.3335H0.84668V14.5835C0.852852 18.2289 2.30395 21.7232 4.88196 24.3006C7.45996 26.878 10.9546 28.3282 14.6 28.3335H15.8467ZM14.6 0.833496H13.3467V5.8335H14.5967C16.9165 5.83614 19.1406 6.75887 20.7809 8.39924C22.4213 10.0396 23.344 12.2637 23.3467 14.5835V15.8335H28.3467V14.5835C28.3423 10.9381 26.8922 7.44332 24.3145 4.86565C21.7369 2.28798 18.2454 0.837907 14.6 0.833496Z" fill="#000165"/>
</svg>
