<svg width="65" height="70" viewBox="0 0 65 70" fill="none" xmlns="http://www.w3.org/2000/svg">
<path d="M42.5 5H65V0H42.5C31.4767 0 22.4933 8.97 22.4733 20.0133L22.4933 23.9733L15 31.5067V39.99H22.4667V49.99C22.4746 53.3095 23.7984 56.4903 26.1478 58.8354C28.4972 61.1804 31.6805 62.4982 35 62.5V70H65V65H40V57.48L35 57.5C33.0061 57.5 31.0935 56.7095 29.6814 55.3018C28.2693 53.8941 27.4728 51.9839 27.4667 49.99V34.99H18.59L27.5067 26.0233L27.4733 20.0033C27.4857 16.024 29.0735 12.2114 31.8896 9.39976C34.7056 6.58809 38.5206 5.00615 42.5 5ZM20 50H15V55H20V50ZM12.5 60H7.5V65H12.5V60ZM12.5 40H7.5V45H12.5V40ZM12.5 50H7.5V55H12.5V50ZM5 50H0V55H5V50ZM5 65H0V70H5V65ZM5 35H0V40H5V35Z" fill="#000165"/>
</svg>
