<svg width="23" height="48" viewBox="0 0 23 48" fill="none" xmlns="http://www.w3.org/2000/svg">
<path d="M5.79781 27.3682V34.1182C5.80317 36.3589 6.69671 38.506 8.28256 40.0889C9.86841 41.6718 12.0172 42.5613 14.2578 42.5625V47.625H22.6458V44.25H17.6328V39.174L14.2578 39.1875C12.9119 39.1875 11.6209 38.6539 10.6677 37.7037C9.71456 36.7535 9.17698 35.4641 9.17281 34.1182L9.14581 23.9932H3.18106L9.19981 17.943L9.17731 13.8772C9.18564 11.1912 10.2574 8.61772 12.1583 6.71984C14.0591 4.82196 16.6342 3.75415 19.3203 3.75H20.9583V0.375H19.3203C11.8796 0.375 5.81581 6.42975 5.80231 13.884L5.81581 16.557L0.757812 21.642V27.3682H5.79781Z" fill="#000165"/>
</svg>
