<svg width="34" height="48" viewBox="0 0 34 48" fill="none" xmlns="http://www.w3.org/2000/svg">
<path d="M8.24051 5.4375C6.31012 7.8297 5.25579 10.8101 5.25251 13.884L5.26601 16.557L0.208008 21.642V27.3682H5.24801V34.1182C5.24889 35.2282 5.46844 36.3272 5.8941 37.3523C6.31976 38.3774 6.9432 39.3087 7.72882 40.0928C8.51443 40.877 9.44682 41.4987 10.4727 41.9224C11.4987 42.3462 12.598 42.5637 13.708 42.5625V47.625H33.958V44.25H17.083V39.174L13.708 39.1875C12.3621 39.1875 11.0711 38.6539 10.1179 37.7037C9.16476 36.7535 8.62718 35.4641 8.62301 34.1182V23.9932H2.63126L8.65001 17.943L8.62751 13.8772C8.63287 11.1903 9.70373 8.61508 11.6052 6.71656C13.5067 4.81804 16.0835 3.75119 18.7705 3.75H33.958V0.375H18.7705C16.7482 0.376264 14.7521 0.831845 12.9295 1.70809C11.1069 2.58433 9.50443 3.85885 8.24051 5.4375Z" fill="#000165"/>
</svg>
