<svg width="13" height="13" viewBox="0 0 13 13" fill="none" xmlns="http://www.w3.org/2000/svg">
<path d="M6.60001 0.303223C4.94237 0.304105 3.35283 0.962761 2.18039 2.13458C1.00795 3.30639 0.348446 4.89558 0.34668 6.55322C0.34668 9.99989 3.15335 12.8032 6.59668 12.8032C8.25374 12.8015 9.84242 12.1424 11.0141 10.9707C12.1859 9.79897 12.8449 8.21028 12.8467 6.55322C12.8449 4.89616 12.1859 3.30747 11.0141 2.13575C9.84242 0.964032 8.25707 0.304987 6.60001 0.303223ZM6.60001 7.80322C6.26849 7.80322 5.95055 7.67153 5.71613 7.43711C5.48171 7.20269 5.35001 6.88474 5.35001 6.55322C5.35001 6.2217 5.48171 5.90376 5.71613 5.66934C5.95055 5.43492 6.26849 5.30322 6.60001 5.30322C6.93153 5.30322 7.24948 5.43492 7.4839 5.66934C7.71832 5.90376 7.85001 6.2217 7.85001 6.55322C7.85001 6.88474 7.71832 7.20269 7.4839 7.43711C7.24948 7.67153 6.93153 7.80322 6.60001 7.80322Z" fill="#000165"/>
</svg>
