<svg width="96" height="86" viewBox="0 0 96 86" fill="none" xmlns="http://www.w3.org/2000/svg">
<path d="M18.731 0.618408H95.6943V75.3817H85.0335C84.3499 78.31 82.6975 80.9216 80.3441 82.7933C77.9907 84.6651 75.0742 85.6873 72.0673 85.6942C68.5257 85.6942 65.1291 84.2874 62.6249 81.7831C60.1206 79.2788 58.7137 75.8823 58.7137 72.3407C58.7137 68.7991 60.1206 65.4026 62.6249 62.8983C65.1291 60.394 68.5257 58.9872 72.0673 58.9872C78.3923 58.9872 83.6998 63.433 85.0518 69.3684H89.681V6.63174H22.2739L17.9839 14.3547H40.6943V40.993H6.32391V69.3638H10.976C11.6596 66.4356 13.312 63.824 15.6654 61.9522C18.0188 60.0805 20.9353 59.0583 23.9422 59.0513C30.2443 59.0513 35.5381 63.4651 36.9131 69.3638H51.4423V75.3817H36.9268C36.2552 78.3254 34.6057 80.9545 32.2474 82.8399C29.8892 84.7253 26.9615 85.7557 23.9422 85.763C17.6172 85.763 12.3143 81.3172 10.9577 75.3817H0.310577V33.7834L18.731 0.618408ZM72.0627 64.9959C70.1209 65.0032 68.2613 65.7803 66.8917 67.1567C65.5222 68.5332 64.7544 70.3967 64.7568 72.3384C64.7568 74.2786 65.5257 76.1397 66.895 77.5142C68.2643 78.8886 70.1225 79.6645 72.0627 79.6717C74.0028 79.6645 75.861 78.8886 77.2304 77.5142C78.5997 76.1397 79.3685 74.2786 79.3685 72.3384C79.3709 70.3967 78.6032 68.5332 77.2336 67.1567C75.864 65.7803 74.0044 65.0032 72.0627 64.9959ZM23.9377 79.7405C25.8786 79.7332 27.7375 78.9568 29.107 77.5813C30.4764 76.2058 31.2447 74.3435 31.2435 72.4026C31.2447 70.4616 30.4764 68.5993 29.107 67.2239C27.7375 65.8484 25.8786 65.0719 23.9377 65.0647C21.9975 65.0719 20.1393 65.8478 18.77 67.2222C17.4007 68.5967 16.6318 70.4578 16.6318 72.398C16.6294 74.3397 17.3972 76.2032 18.7667 77.5797C20.1363 78.9561 21.9959 79.7332 23.9377 79.7405ZM34.6764 34.9751V20.368H14.6381L6.52558 34.9797L34.6764 34.9751Z" fill="white"/>
</svg>
