<svg width="70" height="73" viewBox="0 0 70 73" fill="none" xmlns="http://www.w3.org/2000/svg">
<path d="M5 55.5C5 54.837 5.26339 54.2011 5.73223 53.7322C6.20107 53.2634 6.83696 53 7.5 53H40C40.663 53 41.2989 53.2634 41.7678 53.7322C42.2366 54.2011 42.5 54.837 42.5 55.5V63H47.5V55.5C47.5 51.3667 44.1367 48 40 48H7.5C3.36667 48 0 51.3667 0 55.5V63H5V55.5ZM50 30.5V35.5H57.5C61.6367 35.5 65 38.8667 65 43H70C69.9965 39.6859 68.6784 36.5085 66.3349 34.1651C63.9915 31.8216 60.8141 30.5035 57.5 30.5H50ZM70.0067 48H50V53H70V48H70.0067ZM22.5 43C25.8141 42.9965 28.9915 41.6784 31.3349 39.3349C33.6784 36.9915 34.9965 33.8141 35 30.5C34.9965 27.1859 33.6784 24.0085 31.3349 21.6651C28.9915 19.3216 25.8141 18.0035 22.5 18C19.1859 18.0035 16.0085 19.3216 13.6651 21.6651C11.3216 24.0085 10.0035 27.1859 10 30.5C10.0035 33.8141 11.3216 36.9915 13.6651 39.3349C16.0085 41.6784 19.1859 42.9965 22.5 43ZM22.5 23C26.6367 23 30 26.3667 30 30.5C30 34.6333 26.64 38 22.5 38C18.3667 38 15 34.6333 15 30.5C15 26.3667 18.3667 23 22.5 23ZM47.5 25.5C50.8141 25.4965 53.9915 24.1784 56.3349 21.8349C58.6784 19.4915 59.9965 16.3141 60 13C59.9965 9.68588 58.6784 6.5085 56.3349 4.16506C53.9915 1.82162 50.8141 0.503529 47.5 0.5C44.1859 0.503529 41.0085 1.82162 38.6651 4.16506C36.3216 6.5085 35.0035 9.68588 35 13C35.0035 16.3141 36.3216 19.4915 38.6651 21.8349C41.0085 24.1784 44.1859 25.4965 47.5 25.5ZM47.5 5.5C51.64 5.5 55 8.86667 55 13C55 17.1333 51.6367 20.5 47.5 20.5C43.3667 20.5 40 17.1333 40 13C40 8.86667 43.3667 5.5 47.5 5.5ZM47.5067 68H0.00666658V73H47.5067V68Z" fill="#000165"/>
</svg>
