<svg width="48" height="58" viewBox="0 0 48 58" fill="none" xmlns="http://www.w3.org/2000/svg">
<path d="M42 33.4667V20C42.0092 17.6371 41.5493 15.2958 40.6471 13.1119C39.7449 10.928 38.4182 8.94482 36.744 7.27733C33.8599 4.37595 30.0672 2.55256 26 2.112V0H22V2.112C17.9385 2.55312 14.151 4.37344 11.2693 7.26933C9.59283 8.93747 8.26386 10.9216 7.35938 13.1068C6.45489 15.292 5.99285 17.635 6 20V33.4667L0 43.9707V50H16V58H32V50H48V43.968L42 33.4667ZM28 54H20V50H28V54ZM32 46H3.44533L10 34.5307V19.9973C10 16.2587 11.456 12.744 14.0987 10.0987C15.3961 8.79473 16.9392 7.76107 18.6388 7.05753C20.3383 6.35399 22.1606 5.99455 24 6C27.7413 6 31.2693 7.456 33.9147 10.104C35.2162 11.4008 36.2475 12.943 36.9487 14.6413C37.65 16.3395 38.0073 18.16 38 19.9973V34.5307L44.5547 45.9973L32 46Z" fill="#000165"/>
</svg>
