<svg width="52" height="46" viewBox="0 0 52 46" fill="none" xmlns="http://www.w3.org/2000/svg">
<path d="M47.0235 4.371C44.445 1.79475 41.061 0.375 37.4992 0.375C33.9352 0.375 30.5512 1.7925 27.975 4.371C27.0525 5.2935 26.2785 6.31725 25.6642 7.4175C25.0391 6.30029 24.2622 5.27505 23.3557 4.371C20.7795 1.79475 17.3977 0.375 13.8337 0.375C10.2697 0.375 6.88798 1.7925 4.30948 4.371C1.73323 6.9495 0.313477 10.3313 0.313477 13.8975C0.313477 22.1775 4.60648 30.2775 12.729 37.3223C18.651 42.459 24.4965 45.249 24.933 45.4538L25.6665 45.8205V42.0495C23.961 41.172 19.4385 38.6745 14.9385 34.773C7.47298 28.2975 3.68848 21.273 3.68848 13.8975C3.68848 8.39625 8.33473 3.75 13.8315 3.75C19.3305 3.75 23.9745 8.39625 23.9745 13.8952H27.3495C27.354 8.39625 31.998 3.75 37.5015 3.75C43.0005 3.75 47.6467 8.39625 47.6467 13.8952C47.6467 15.5715 47.2732 17.2973 46.7827 18.9375H50.2927C50.7202 17.3242 51.0217 15.6255 51.0217 13.8952C51.0217 10.3312 49.5997 6.9495 47.0235 4.371Z" fill="#000165"/>
</svg>
