<svg width="55" height="71" viewBox="0 0 55 71" fill="none" xmlns="http://www.w3.org/2000/svg">
<path d="M34.85 9.05311V32.8264H39.85V9.06644C39.8513 8.73492 39.9843 8.41751 40.2197 8.18402C40.455 7.95054 40.7735 7.82012 41.105 7.82144C41.4365 7.82277 41.7539 7.95574 41.9874 8.1911C42.2209 8.42645 42.3513 8.74492 42.35 9.07644V32.8198H47.35V19.0764C47.3513 18.7449 47.4843 18.4275 47.7197 18.194C47.955 17.9605 48.2735 17.8301 48.605 17.8314C48.9365 17.8328 49.2539 17.9657 49.4874 18.2011C49.7209 18.4365 49.8513 18.7549 49.85 19.0864V30.3198H54.85V19.0864C54.8487 18.1601 54.6418 17.2455 54.2441 16.4089C53.8464 15.5722 53.2678 14.8343 52.5503 14.2485C51.8327 13.6626 50.9939 13.2434 50.0946 13.0211C49.1953 12.7988 48.2579 12.779 47.35 12.9631V9.07644C47.3482 7.41881 46.6887 5.82961 45.5163 4.6578C44.3438 3.48598 42.7543 2.82733 41.0967 2.82644C40.3133 2.82644 39.5633 2.97978 38.8733 3.24311C38.1499 2.09881 37.0743 1.22049 35.8085 0.74042C34.5426 0.260346 33.1551 0.204495 31.8548 0.581279C30.5545 0.958062 29.4118 1.74708 28.5987 2.82954C27.7856 3.912 27.3462 5.22931 27.3467 6.58311V7.96311C26.3349 7.75804 25.2881 7.80624 24.2995 8.10341C23.3109 8.40059 22.411 8.93752 21.68 9.66644C20.4967 10.8498 19.8467 12.4164 19.8467 14.0864V35.9331L10.32 27.2664C7.88667 24.8798 4.25 24.8964 1.83 27.3131C1.25793 27.8686 0.801651 28.532 0.487542 29.2649C0.173433 29.9978 0.00772505 30.7858 0 31.5831C0 33.1564 0.65 34.6698 1.83333 35.8498L19.8467 53.8664V70.3331H24.8467V51.7931L5.36667 32.3164C5.2 32.1498 5 31.8831 5 31.5831C5 31.2831 5.2 31.0164 5.36667 30.8498C5.85 30.3664 6.34333 30.3664 6.83333 30.8498L18.6333 41.5831H24.8467V14.0831C24.8458 13.9187 24.8775 13.7558 24.94 13.6037C25.0025 13.4517 25.0946 13.3135 25.2108 13.1973C25.3271 13.081 25.4652 12.989 25.6173 12.9265C25.7693 12.864 25.9323 12.8322 26.0967 12.8331C26.7867 12.8331 27.3467 13.3964 27.3467 14.0831V32.8064H32.3467V6.58311C32.3467 6.25159 32.4784 5.93365 32.7128 5.69923C32.9472 5.46481 33.2651 5.33311 33.5967 5.33311C33.9282 5.33311 34.2461 5.46481 34.4805 5.69923C34.715 5.93365 34.8467 6.25159 34.8467 6.58311L34.85 9.05311Z" fill="#000165"/>
</svg>
