<svg width="45" height="44" viewBox="0 0 45 44" fill="none" xmlns="http://www.w3.org/2000/svg">
<path d="M22.1873 -0.00683594C16.3779 0.000441023 10.8085 2.31145 6.70059 6.41934C2.5927 10.5272 0.281691 16.0966 0.274414 21.9061C0.274414 30.3807 6.22358 43.819 22.1873 43.819C27.9968 43.8117 33.5662 41.5007 37.6741 37.3928C41.782 33.2849 44.093 27.7155 44.1003 21.9061C44.093 16.0966 41.782 10.5272 37.6741 6.41934C33.5662 2.31145 27.9968 0.000441023 22.1873 -0.00683594ZM22.1873 37.8057C9.14317 37.8057 6.28775 26.329 6.28775 21.9061C6.2926 17.6907 7.96929 13.6494 10.95 10.6687C13.9307 7.68804 17.972 6.01135 22.1873 6.0065C26.4027 6.01135 30.444 7.68804 33.4247 10.6687C36.4054 13.6494 38.0821 17.6907 38.0869 21.9061C38.0821 26.1214 36.4054 30.1627 33.4247 33.1434C30.444 36.1241 26.4027 37.8008 22.1873 37.8057Z" fill="white"/>
</svg>
