<svg width="111" height="128" viewBox="0 0 111 128" fill="none" xmlns="http://www.w3.org/2000/svg">
<path d="M48.6407 127.796H50.8611C53.0468 127.793 55.1996 127.264 57.138 126.254C59.0764 125.244 60.7435 123.783 61.9985 121.993C63.2535 120.204 64.0596 118.139 64.3489 115.972C64.6381 113.806 64.402 111.602 63.6604 109.546H64.5486C68.1584 109.543 71.6194 108.107 74.1719 105.555C76.7245 103.002 78.1599 99.5411 78.1631 95.9313C78.1631 93.4797 77.5122 91.1802 76.3685 89.1909C78.9831 87.5419 80.9587 85.0521 81.9703 82.1311C82.9819 79.21 82.9694 76.0317 81.9348 73.1188H96.4618C100.086 73.1156 103.56 71.6742 106.122 69.1112C108.683 66.5483 110.123 63.0733 110.125 59.4495C110.131 57.6478 109.778 55.8628 109.086 54.199C108.395 52.5351 107.379 51.0257 106.098 49.7588C104.827 48.4877 103.317 47.4819 101.654 46.7999C99.9918 46.118 98.2101 45.7734 96.4131 45.7864L37.9644 45.7499L60.3633 20.4736C61.4468 19.2446 62.2705 17.8091 62.7849 16.2535C63.2992 14.6979 63.4936 13.0543 63.3563 11.4217C63.1582 9.13924 62.316 6.96002 60.9276 5.13769C59.5391 3.31537 57.6616 1.9249 55.5136 1.12817C53.3657 0.331439 51.0355 0.16122 48.7946 0.63733C46.5536 1.11344 44.494 2.21629 42.8554 3.81749L0.624947 44.1074V56.712L49.1699 10.4057L49.2308 10.351C49.7789 9.81526 50.5133 9.51281 51.2797 9.50717C52.0462 9.50152 52.7849 9.79313 53.3409 10.3207C53.8968 10.8483 54.2267 11.5709 54.2611 12.3365C54.2956 13.1022 54.0319 13.8514 53.5256 14.4268L27.8296 43.4321V54.8688L96.4313 54.9235C97.0295 54.9187 97.6226 55.0329 98.1761 55.2595C98.7297 55.4862 99.2326 55.8207 99.6555 56.2436C100.288 56.8787 100.718 57.6866 100.892 58.5656C101.067 59.4446 100.977 60.3555 100.635 61.1838C100.293 62.0121 99.714 62.7208 98.9704 63.2208C98.2267 63.7208 97.3518 63.9897 96.4557 63.9938L42.7033 63.9938V64.0729H37.0215C33.4117 64.0761 29.9507 65.5115 27.3982 68.064C24.8456 70.6165 23.4102 74.0776 23.407 77.6874C23.4072 81.062 24.6652 84.3154 26.9354 86.8124C24.6602 89.3187 23.4192 92.5307 23.4192 95.9374V95.9556C23.4236 99.3181 24.6767 102.559 26.9354 105.05C25.2844 106.865 24.1568 109.094 23.6726 111.499C23.1883 113.904 23.3657 116.395 24.1857 118.707L0.618866 118.671V127.796L48.6346 127.869L48.6407 127.796ZM37.0276 82.1708C35.8773 82.1109 34.7939 81.6118 34.0009 80.7764C33.2079 79.941 32.7658 78.8331 32.7658 77.6813C32.7658 76.5295 33.2079 75.4216 34.0009 74.5862C34.7939 73.7508 35.8773 73.2517 37.0276 73.1918H69.1111C70.2614 73.2517 71.3448 73.7508 72.1378 74.5862C72.9308 75.4216 73.3729 76.5295 73.3729 77.6813C73.3729 78.8331 72.9308 79.941 72.1378 80.7764C71.3448 81.6118 70.2614 82.1109 69.1111 82.1708H37.0276ZM37.0398 100.421C35.8511 100.418 34.712 99.9444 33.8709 99.1044C33.0298 98.2645 32.5551 97.126 32.5503 95.9374C32.5483 95.3475 32.6635 94.7569 32.8891 94.2119C33.1146 93.6668 33.4461 93.1718 33.8643 92.7558C34.2803 92.3376 34.7753 92.0061 35.3204 91.7806C35.8654 91.555 36.4499 91.4399 37.0398 91.4418H64.5486C65.6989 91.5017 66.7823 92.0008 67.5753 92.8362C68.3683 93.6716 68.8104 94.7794 68.8104 95.9313C68.8104 97.0831 68.3683 98.191 67.5753 99.0264C66.7823 99.8617 65.6989 100.361 64.5486 100.421H37.0398ZM37.0276 118.671C35.8773 118.611 34.7939 118.112 34.0009 117.276C33.2079 116.441 32.7658 115.333 32.7658 114.181C32.7658 113.029 33.2079 111.922 34.0009 111.086C34.7939 110.251 35.8773 109.752 37.0276 109.692H50.8611C52.0114 109.752 53.0948 110.251 53.8878 111.086C54.6808 111.922 55.1229 113.029 55.1229 114.181C55.1229 115.333 54.6808 116.441 53.8878 117.276C53.0948 118.112 52.0114 118.611 50.8611 118.671H37.0276Z" fill="white"/>
</svg>
