<svg width="72" height="80" viewBox="0 0 72 80" fill="none" xmlns="http://www.w3.org/2000/svg">
<path d="M5.02763 33.5358C2.74561 32.2236 1.09479 30.0851 0.415043 27.5091C-0.264707 24.9818 0.0751679 22.26 1.38611 19.9757C4.15366 15.2612 10.1743 13.6087 14.9325 16.3305C17.1175 17.5942 18.7683 19.6841 19.4966 22.1142L22.7011 23.9611C24.5461 22.4544 26.6339 21.2394 28.8674 20.4131V16.7679C27.1195 14.921 26.1484 12.4909 26.1484 9.91495C26.1484 4.47145 30.5668 0 36.0533 0C41.5399 0 45.9582 4.42284 45.9582 9.91495C45.9582 12.4423 44.9872 14.921 43.2392 16.7679V20.4131C45.4727 21.2394 47.6091 22.4544 49.4055 23.9611L52.5615 22.1142C53.2898 19.6841 54.8921 17.5942 57.1255 16.3305C61.8352 13.6087 67.9044 15.2126 70.672 19.9757C71.9829 22.26 72.3228 24.9818 71.643 27.5091C70.9633 30.0365 69.3125 32.2236 67.0305 33.5358C64.8456 34.7995 62.2237 35.1883 59.7474 34.5565L56.5915 36.4034C56.9799 38.7849 56.9799 41.1665 56.5915 43.548L59.7474 45.3949C62.2237 44.8117 64.8456 45.1519 67.0305 46.4156C71.7402 49.1373 73.391 55.2126 70.672 59.9757C69.361 62.26 67.2247 63.9125 64.6513 64.593C62.1266 65.2734 59.4076 64.9332 57.1255 63.6209C54.9406 62.3572 53.2898 60.2673 52.5615 57.8372L49.357 55.9903C47.5119 57.5456 45.4242 58.712 43.1907 59.5869V63.2321C44.9386 65.079 45.9097 67.5091 45.9097 70.0851C45.9097 75.5286 41.4428 80 36.0048 80C30.5668 80 26.0999 75.5772 26.0999 70.0851C26.0999 67.5577 27.0709 65.079 28.8188 63.2321V59.5869C26.5854 58.7606 24.449 57.5456 22.6526 55.9903L19.448 57.8372C18.7197 60.2673 17.1175 62.3572 14.884 63.6209C12.602 64.9332 9.93153 65.2734 7.3582 64.593C4.83341 63.9125 2.6485 62.26 1.33756 59.9757C-1.38144 55.2126 0.220829 49.1859 4.97907 46.4156C7.16398 45.1519 9.78587 44.7631 12.2621 45.3949L15.4181 43.548C15.0297 41.1665 15.0297 38.7849 15.4181 36.4034L12.2621 34.5565C9.78587 35.1397 7.16398 34.7995 4.97907 33.5358H5.02763ZM19.3509 34.7023L19.0596 35.966C18.4284 38.5905 18.4284 41.3609 19.0596 44.034L19.3509 45.2491L12.7476 49.0887L12.0193 48.8457C10.2714 48.2625 8.37782 48.4569 6.727 49.3803C1.77454 52.2965 2.74561 59.7813 8.28071 61.288C11.8737 62.26 15.5152 60.0243 16.292 56.3791L16.4377 55.6501L23.0895 51.8104L24.012 52.6853C26.0027 54.5808 28.3819 55.9417 31.0038 56.7193L32.2176 57.0595V64.6902L31.635 65.2248C27.2166 69.2102 30.0327 76.5492 35.9562 76.5492C41.8797 76.5492 44.6958 69.2102 40.2775 65.2248L39.6948 64.6902V57.0595L40.9087 56.7193C43.482 55.9417 45.9097 54.5322 47.8518 52.6853L48.7743 51.8104L55.4262 55.6501L55.5718 56.3791C56.3487 60.0243 59.9902 62.26 63.5832 61.288C69.1668 59.7813 70.1379 52.2965 65.1369 49.3803C63.5346 48.4569 61.641 48.2625 59.8445 48.8457L59.1162 49.0887L52.4644 45.2491L52.7557 44.034C53.3869 41.3609 53.3869 38.5905 52.7557 35.966L52.4644 34.7509L59.1162 30.9113L59.8445 31.1543C63.389 32.3208 67.1761 30.2795 68.1472 26.6343C69.6038 21.0936 63.6317 16.4763 58.6307 19.3439C57.0284 20.2673 55.9117 21.8226 55.5233 23.6209L55.3776 24.3499L48.7258 28.1896L47.8033 27.3147C45.8126 25.4192 43.4335 24.0583 40.8601 23.2807L39.6463 22.9405V15.2612L40.2289 14.7752C44.6473 10.7898 41.8797 3.45079 35.9077 3.45079C29.9841 3.45079 27.168 10.7898 31.5864 14.7752L32.169 15.3098V22.9405L30.9552 23.2807C28.3333 24.0583 25.9542 25.4192 23.9635 27.3147L23.041 28.1896L16.3891 24.3499L16.2435 23.6209C15.8551 21.8226 14.7383 20.2187 13.1361 19.3439C8.13505 16.4763 2.16297 21.0936 3.61957 26.6343C4.59064 30.2309 8.37782 32.3208 11.9222 31.1543L12.6505 30.9113L19.2538 34.7509L19.3509 34.7023Z" fill="#000165"/>
</svg>
